<svg id="svg" version="1.1" xmlns="http://www.w3.org/2000/svg" xmlns:xlink="http://www.w3.org/1999/xlink" width="400" height="400" viewBox="0, 0, 400,400"><g id="svgg"><path id="path0" d="M187.344 0.196 C 69.103 9.120,-15.074 113.316,2.070 229.531 C 18.818 343.073,128.096 419.204,240.874 395.901 C 348.822 373.595,418.293 267.492,395.901 159.126 C 378.193 73.431,308.218 10.649,219.375 0.749 C 215.083 0.271,191.702 -0.133,187.344 0.196 M187.029 11.591 C 179.330 19.315,177.824 20.963,178.594 20.820 C 179.109 20.725,181.500 20.489,183.906 20.296 L 188.281 19.946 193.904 14.349 L 199.527 8.752 278.972 88.188 C 322.667 131.878,358.490 167.551,358.579 167.463 C 358.668 167.374,358.022 164.358,357.143 160.760 L 355.545 154.219 279.569 78.169 L 203.594 2.120 208.125 2.318 C 310.300 6.794,392.180 88.614,396.729 190.781 L 396.937 195.469 387.656 186.250 L 378.374 177.031 378.556 178.438 C 378.657 179.211,378.900 181.742,379.096 184.063 C 379.523 189.092,379.026 188.299,386.230 195.467 L 391.253 200.465 312.437 279.282 C 269.088 322.631,233.698 358.177,233.793 358.272 C 233.888 358.368,236.625 357.791,239.874 356.992 L 245.781 355.538 321.356 280.035 L 396.932 204.531 396.730 208.594 C 391.646 310.935,310.933 391.651,208.594 396.737 L 204.531 396.939 213.438 387.972 C 220.779 380.581,222.179 379.036,221.406 379.179 C 220.891 379.275,218.500 379.511,216.094 379.704 L 211.719 380.054 206.096 385.651 L 200.473 391.248 121.028 311.812 C 77.333 268.122,41.510 232.449,41.421 232.537 C 41.332 232.626,41.978 235.642,42.857 239.240 L 44.455 245.781 119.962 321.361 L 195.469 396.942 191.094 396.742 C 88.907 392.078,7.361 310.592,2.649 208.438 L 2.440 203.906 12.033 213.438 L 21.626 222.969 21.444 221.563 C 21.343 220.789,21.100 218.258,20.904 215.938 C 20.477 210.908,20.974 211.701,13.770 204.533 L 8.747 199.535 87.563 120.718 C 130.912 77.369,166.302 41.823,166.207 41.728 C 166.112 41.632,163.375 42.209,160.126 43.008 L 154.219 44.462 78.327 120.278 L 2.435 196.094 2.642 191.094 C 5.997 110.038,59.197 38.870,135.938 12.775 C 154.590 6.432,176.071 2.493,193.436 2.232 L 196.402 2.188 187.029 11.591 M191.406 24.578 C 112.786 28.607,46.566 84.579,29.243 161.645 C 29.052 162.493,30.781 160.985,35.851 155.881 L 40.295 151.406 42.025 146.305 C 64.954 78.682,128.633 33.091,200.103 33.128 C 205.666 33.131,213.260 33.498,216.563 33.923 L 217.969 34.104 213.202 29.318 L 208.435 24.531 201.014 24.499 C 196.933 24.481,192.609 24.516,191.406 24.578 M237.760 29.283 C 238.110 29.763,240.690 32.438,243.494 35.226 L 248.594 40.295 253.695 42.025 C 327.248 66.963,373.439 138.835,366.069 216.875 L 365.877 218.906 370.306 214.506 L 374.735 210.106 374.907 203.569 C 377.085 120.724,319.437 47.045,238.016 28.612 L 237.125 28.410 237.760 29.283 M202.036 106.016 C 201.964 106.230,201.597 107.988,201.221 109.922 L 200.537 113.438 198.131 113.438 C 193.603 113.438,189.773 116.340,187.150 121.759 C 182.291 131.797,189.777 136.892,196.400 128.055 C 197.257 126.913,197.983 126.004,198.016 126.037 C 198.048 126.069,197.810 127.361,197.487 128.907 C 197.164 130.453,196.894 131.824,196.887 131.953 C 196.881 132.082,198.060 132.188,199.509 132.188 L 202.143 132.188 202.483 130.547 C 202.670 129.645,203.852 123.668,205.108 117.266 L 207.393 105.625 204.780 105.625 C 202.969 105.625,202.128 105.745,202.036 106.016 M111.744 107.192 C 108.090 108.619,105.945 112.479,106.878 115.951 C 107.271 117.414,108.362 118.624,112.577 122.274 C 117.951 126.926,113.618 131.230,106.241 128.569 C 103.645 127.633,103.842 127.555,103.440 129.676 C 102.968 132.165,102.923 132.095,105.240 132.509 C 114.122 134.096,120.924 130.772,120.924 124.844 C 120.924 121.973,120.354 121.192,114.582 116.154 C 109.766 111.949,113.446 108.317,120.176 110.632 C 121.187 110.979,122.178 111.200,122.380 111.123 C 122.669 111.012,123.284 108.237,123.184 107.500 C 123.051 106.527,114.067 106.285,111.744 107.192 M139.063 110.072 C 137.113 110.424,137.007 110.529,136.727 112.395 C 136.528 113.725,136.502 113.750,135.314 113.750 C 134.039 113.750,134.009 113.786,133.592 115.859 C 133.388 116.873,133.390 116.875,134.669 116.875 C 135.838 116.875,135.935 116.936,135.783 117.578 C 132.702 130.611,133.136 132.465,139.278 132.489 C 142.492 132.501,142.357 132.578,142.661 130.547 L 142.883 129.063 141.464 129.063 C 140.154 129.063,139.063 128.506,139.063 127.839 C 139.063 127.592,140.794 118.853,141.096 117.578 C 141.245 116.947,141.451 116.875,143.110 116.875 C 145.097 116.875,145.034 116.931,145.470 114.766 L 145.675 113.750 143.740 113.750 L 141.805 113.750 142.023 112.578 C 142.142 111.934,142.316 111.020,142.409 110.547 C 142.603 109.560,142.208 109.504,139.063 110.072 M281.875 110.072 C 279.926 110.424,279.820 110.529,279.540 112.395 C 279.340 113.725,279.314 113.750,278.127 113.750 C 276.852 113.750,276.822 113.786,276.405 115.859 C 276.201 116.873,276.203 116.875,277.481 116.875 C 278.650 116.875,278.747 116.936,278.596 117.578 C 275.514 130.611,275.949 132.465,282.091 132.489 C 285.304 132.501,285.170 132.578,285.474 130.547 L 285.696 129.063 284.277 129.063 C 282.966 129.063,281.875 128.506,281.875 127.839 C 281.875 127.592,283.607 118.853,283.908 117.578 C 284.057 116.947,284.264 116.875,285.922 116.875 C 287.910 116.875,287.847 116.931,288.283 114.766 L 288.487 113.750 286.553 113.750 L 284.618 113.750 284.835 112.578 C 284.955 111.934,285.128 111.020,285.221 110.547 C 285.416 109.560,285.020 109.504,281.875 110.072 M224.131 114.089 C 216.037 117.275,213.312 129.929,220.229 132.211 C 223.157 133.178,231.998 131.724,232.339 130.220 C 233.297 125.991,233.438 126.170,230.316 127.636 C 226.387 129.479,222.808 129.512,221.943 127.714 C 221.158 126.081,221.237 125.625,222.307 125.625 C 229.650 125.625,235.817 118.226,231.699 114.356 C 230.548 113.275,226.557 113.134,224.131 114.089 M257.813 114.052 C 256.551 114.728,254.177 117.105,252.998 118.872 C 252.051 120.291,252.059 120.366,252.783 116.629 L 253.345 113.727 250.666 113.817 L 247.987 113.906 246.348 122.344 C 245.447 126.984,244.632 131.098,244.536 131.484 C 244.367 132.172,244.422 132.188,247.019 132.188 C 249.517 132.188,249.685 132.146,249.839 131.484 C 249.928 131.098,250.213 129.752,250.470 128.493 C 251.036 125.727,253.724 121.594,256.545 119.152 C 258.927 117.089,258.838 119.500,256.087 131.484 C 255.866 132.448,261.088 132.603,261.366 131.641 C 262.217 128.700,264.103 117.720,263.979 116.429 C 263.710 113.625,260.742 112.481,257.813 114.052 M158.172 115.234 C 154.909 130.519,155.011 132.500,159.061 132.500 C 161.661 132.500,163.903 130.914,166.524 127.219 C 167.061 126.462,167.500 125.926,167.500 126.026 C 167.500 126.216,166.689 130.245,166.401 131.484 C 166.178 132.448,171.400 132.603,171.679 131.641 C 171.766 131.340,172.557 127.438,173.438 122.969 C 174.318 118.500,175.109 114.598,175.196 114.297 C 175.338 113.806,175.079 113.750,172.683 113.750 C 170.168 113.750,170.003 113.791,169.855 114.453 C 169.769 114.840,169.485 116.115,169.224 117.287 C 168.222 121.786,161.250 130.291,161.250 127.015 C 161.250 126.574,163.245 116.124,163.648 114.453 C 163.814 113.766,163.758 113.750,161.154 113.750 L 158.489 113.750 158.172 115.234 M199.443 118.395 C 199.274 121.028,193.573 127.699,191.720 127.434 C 189.828 127.162,192.421 119.717,195.079 117.792 C 196.187 116.989,196.619 116.861,197.957 116.939 L 199.531 117.031 199.443 118.395 M227.819 117.512 C 228.800 119.345,225.844 122.188,222.958 122.188 C 221.937 122.188,221.852 122.122,222.043 121.484 C 223.047 118.116,226.772 115.555,227.819 117.512 M107.279 154.766 C 106.767 156.184,103.409 165.675,99.815 175.858 L 93.281 194.372 86.711 194.373 C 66.191 194.379,53.190 200.616,47.534 213.169 C 41.580 226.381,49.079 235.938,65.401 235.938 C 83.560 235.938,96.606 226.663,106.173 206.953 L 108.486 202.188 116.382 202.188 L 124.278 202.188 119.825 214.609 L 115.373 227.031 124.140 227.114 C 128.962 227.160,132.956 227.148,133.017 227.087 C 133.122 226.982,141.875 202.468,141.875 202.278 C 141.875 202.228,148.951 202.188,157.600 202.188 C 174.838 202.188,175.224 202.152,177.740 200.329 C 179.202 199.270,180.572 197.131,180.838 195.492 L 181.019 194.375 162.853 194.375 C 152.862 194.375,144.688 194.336,144.688 194.289 C 144.688 194.241,147.430 186.495,150.781 177.075 C 154.133 167.655,156.875 159.817,156.875 159.657 C 156.875 159.481,153.362 159.398,148.051 159.448 L 139.227 159.531 133.105 176.875 L 126.984 194.219 118.961 194.302 C 114.220 194.351,110.938 194.268,110.938 194.098 C 110.938 193.838,124.382 156.165,125.476 153.359 L 125.932 152.188 117.070 152.188 L 108.208 152.188 107.279 154.766 M173.050 160.078 C 171.819 161.962,166.250 171.216,166.250 171.378 C 166.250 171.479,171.242 171.563,177.344 171.563 C 186.387 171.563,188.438 171.640,188.438 171.980 C 188.438 172.560,183.818 223.523,183.580 225.573 L 183.386 227.239 188.967 227.135 C 198.651 226.955,197.585 227.988,213.286 203.569 L 225.156 185.108 225.237 206.175 L 225.317 227.242 230.237 227.137 C 239.504 226.938,237.624 229.283,257.868 192.656 C 266.798 176.500,274.593 162.402,275.192 161.328 L 276.281 159.375 270.250 159.387 L 264.219 159.399 252.969 180.246 L 241.719 201.094 241.638 180.206 L 241.558 159.318 236.951 159.425 C 228.728 159.615,229.820 158.483,214.242 182.959 C 207.728 193.193,202.354 201.521,202.300 201.466 C 202.245 201.411,202.979 194.204,203.932 185.449 C 205.843 167.878,205.875 166.594,204.463 163.977 C 202.166 159.720,200.753 159.375,185.604 159.375 L 173.509 159.375 173.050 160.078 M278.138 160.859 C 277.633 161.676,275.961 164.383,274.423 166.875 L 271.627 171.406 298.079 171.582 C 326.560 171.771,326.520 171.768,329.201 173.427 C 334.611 176.776,333.959 184.675,327.872 189.520 C 324.775 191.985,321.200 193.636,312.188 196.767 C 309.174 197.814,307.372 198.596,307.418 198.837 C 307.563 199.590,318.145 222.544,318.874 223.686 C 319.857 225.226,320.857 226.118,322.260 226.704 C 323.626 227.274,346.157 227.427,348.129 226.879 C 351.329 225.990,354.146 223.218,354.582 220.529 L 354.768 219.384 345.186 219.301 L 335.604 219.219 331.396 210.186 C 326.499 199.675,326.817 200.847,328.672 200.161 C 339.564 196.134,349.435 188.914,352.498 182.734 C 356.342 174.976,353.487 166.262,345.876 162.522 C 339.693 159.483,338.332 159.375,306.177 159.375 L 279.057 159.375 278.138 160.859 M296.400 178.203 C 296.321 178.418,292.405 189.492,287.698 202.813 L 279.139 227.031 287.898 227.114 C 292.715 227.160,296.717 227.137,296.791 227.063 C 296.912 226.942,314.375 178.123,314.375 177.905 C 314.375 177.562,296.526 177.858,296.400 178.203 M29.571 185.586 L 25.265 189.899 25.093 196.434 C 22.969 277.245,78.552 350.490,156.922 370.151 C 160.041 370.933,162.664 371.503,162.750 371.416 C 162.837 371.330,160.332 368.659,157.184 365.482 L 151.460 359.705 147.527 358.410 C 74.384 334.316,26.249 260.969,33.754 185.047 C 33.946 183.096,34.053 181.449,33.990 181.386 C 33.927 181.323,31.939 183.213,29.571 185.586 M89.333 205.391 C 85.544 215.144,79.106 223.818,73.754 226.383 C 66.599 229.812,62.125 225.747,64.216 217.717 C 66.260 209.870,75.753 203.370,86.406 202.525 C 88.125 202.388,89.767 202.256,90.055 202.232 C 90.491 202.195,90.372 202.717,89.333 205.391 M365.143 243.165 L 359.713 248.517 358.413 252.462 C 335.970 320.591,271.796 366.909,199.897 366.872 C 194.334 366.869,186.740 366.502,183.438 366.077 L 182.031 365.896 186.799 370.682 L 191.567 375.469 201.174 375.432 C 282.491 375.124,352.811 318.285,370.756 238.359 C 370.959 237.456,370.778 237.611,365.143 243.165 M282.708 259.141 C 282.614 259.527,281.123 267.016,279.397 275.781 C 277.670 284.547,276.182 292.035,276.091 292.422 C 275.927 293.119,275.957 293.125,279.369 293.125 C 281.263 293.125,282.813 293.086,282.813 293.039 C 282.813 292.991,284.359 285.226,286.250 275.781 C 288.141 266.337,289.688 258.571,289.688 258.524 C 289.688 257.928,282.857 258.531,282.708 259.141 M114.852 260.996 C 114.773 261.222,113.362 268.297,111.715 276.719 C 110.068 285.141,108.646 292.282,108.555 292.589 C 108.401 293.104,108.656 293.139,111.920 293.057 L 115.451 292.969 116.700 286.641 L 117.950 280.313 120.784 280.313 C 128.514 280.313,133.740 276.533,135.498 269.671 C 136.442 265.983,135.329 262.867,132.583 261.514 C 130.767 260.621,115.143 260.164,114.852 260.996 M220.625 264.327 L 217.969 264.844 217.531 266.953 L 217.094 269.063 215.454 269.063 L 213.814 269.063 213.470 271.041 C 213.280 272.130,213.125 273.114,213.125 273.229 C 213.125 273.344,213.828 273.438,214.688 273.438 C 215.547 273.438,216.250 273.481,216.250 273.534 C 216.250 273.587,215.617 276.715,214.844 280.486 C 212.581 291.518,213.266 293.471,219.481 293.700 C 223.756 293.857,224.447 293.601,224.892 291.699 C 225.570 288.797,225.557 288.770,223.589 288.973 C 221.438 289.195,220.625 288.620,220.625 286.879 C 220.625 285.912,222.273 277.096,222.977 274.297 C 223.189 273.450,223.230 273.438,225.653 273.438 C 228.401 273.438,228.076 273.746,228.698 270.547 L 228.987 269.063 226.525 269.063 C 223.595 269.063,223.724 269.420,224.852 264.453 C 225.049 263.588,224.501 263.572,220.625 264.327 M126.117 265.489 C 131.860 266.350,127.289 275.097,120.747 275.764 L 118.838 275.959 119.934 270.475 L 121.030 264.992 123.093 265.168 C 124.228 265.265,125.589 265.409,126.117 265.489 M155.359 269.045 C 146.380 272.364,140.989 285.613,146.344 291.199 C 148.992 293.962,155.449 294.650,159.688 292.622 C 167.837 288.722,172.331 276.126,167.406 270.988 C 165.031 268.511,159.304 267.587,155.359 269.045 M198.035 269.245 C 196.134 270.235,193.334 273.027,191.633 275.630 C 190.907 276.742,190.313 277.566,190.313 277.462 C 190.313 277.358,190.664 275.547,191.094 273.438 C 191.523 271.328,191.875 269.480,191.875 269.332 C 191.875 269.184,190.345 269.063,188.474 269.063 L 185.073 269.063 182.834 280.547 C 181.602 286.863,180.521 292.277,180.432 292.578 C 180.285 293.076,180.582 293.125,183.729 293.125 C 185.631 293.125,187.188 293.074,187.188 293.012 C 187.188 290.736,188.942 284.884,190.162 283.092 C 194.274 277.051,197.076 274.586,199.656 274.740 L 201.386 274.844 202.231 272.188 C 203.448 268.364,203.465 268.435,201.328 268.452 C 200.043 268.462,199.105 268.688,198.035 269.245 M250.539 269.184 C 247.052 270.638,244.170 273.359,241.760 277.473 C 233.092 292.262,244.229 300.746,253.698 286.566 C 254.414 285.494,255.000 284.754,255.000 284.921 C 255.000 285.089,254.648 286.953,254.219 289.063 C 253.789 291.172,253.438 292.949,253.438 293.012 C 253.438 293.074,254.964 293.125,256.829 293.125 L 260.220 293.125 262.477 281.797 C 263.718 275.566,264.805 270.165,264.893 269.793 C 265.049 269.139,264.942 269.112,261.511 268.930 C 259.563 268.827,256.703 268.672,255.156 268.587 C 252.680 268.449,252.128 268.521,250.539 269.184 M160.776 273.619 C 163.418 275.350,162.307 283.573,158.951 287.136 C 155.374 290.933,151.428 289.392,151.451 284.208 C 151.482 277.075,156.813 271.022,160.776 273.619 M257.034 273.442 C 258.645 276.048,248.866 288.451,246.052 287.371 C 243.904 286.547,248.167 276.149,251.528 274.017 C 253.000 273.084,256.581 272.710,257.034 273.442 M205.253 296.634 L 205.156 297.969 202.916 298.169 C 200.456 298.389,200.000 298.558,200.000 299.250 C 200.000 300.954,198.786 301.563,195.389 301.563 C 192.446 301.563,192.160 301.613,192.308 302.109 C 192.397 302.410,192.557 303.023,192.664 303.471 C 192.979 304.794,194.825 305.625,197.450 305.625 C 199.897 305.625,201.141 306.038,201.429 306.946 C 201.712 307.839,201.490 307.921,198.403 308.069 C 195.699 308.198,195.581 308.234,195.751 308.868 C 195.849 309.233,195.931 309.771,195.933 310.063 C 195.936 310.356,196.570 311.030,197.344 311.563 C 198.772 312.545,198.971 313.050,198.549 314.626 C 198.141 316.147,196.886 315.412,191.664 310.596 C 185.947 305.324,185.840 305.276,182.031 306.250 C 178.036 307.272,178.069 307.530,182.832 312.500 C 184.891 314.648,188.276 318.199,190.354 320.391 L 194.134 324.375 186.598 324.375 C 182.453 324.375,179.063 324.419,179.063 324.474 C 179.063 327.032,180.128 329.063,182.313 330.667 L 183.531 331.563 189.274 331.563 L 195.016 331.563 194.930 336.319 L 194.844 341.075 193.545 341.331 C 190.094 342.013,189.007 344.164,188.570 351.172 L 188.370 354.375 187.295 354.375 C 184.898 354.375,182.188 357.139,182.188 359.583 L 182.188 360.938 187.427 360.938 L 192.666 360.938 196.165 357.422 L 199.664 353.906 199.754 351.608 L 199.844 349.310 201.250 348.782 C 203.671 347.872,206.865 349.569,208.136 352.441 C 208.844 354.041,208.734 354.375,207.502 354.375 C 204.850 354.375,201.875 357.534,201.875 360.351 L 201.875 361.250 207.271 361.250 L 212.667 361.250 216.057 357.849 L 219.447 354.448 219.323 349.021 C 219.181 342.882,219.017 342.372,216.874 341.406 L 215.637 340.848 215.826 329.565 L 216.014 318.281 217.108 316.034 C 218.368 313.446,218.344 312.743,216.897 309.682 C 216.285 308.390,215.945 307.058,215.798 305.389 C 215.397 300.830,214.539 299.769,210.156 298.421 C 209.469 298.209,208.273 297.517,207.500 296.883 C 205.366 295.135,205.361 295.134,205.253 296.634 " stroke="none" fill="#ce0b2b" fill-rule="evenodd"></path><path id="path1" d="M186.875 2.530 C 85.894 9.637,6.803 90.587,2.642 191.094 L 2.435 196.094 78.327 120.278 L 154.219 44.462 160.126 43.008 C 163.375 42.209,166.112 41.632,166.207 41.728 C 166.302 41.823,130.912 77.369,87.563 120.718 L 8.747 199.535 13.770 204.533 C 20.974 211.701,20.477 210.908,20.904 215.938 C 21.100 218.258,21.343 220.789,21.444 221.563 L 21.626 222.969 12.033 213.438 L 2.440 203.906 2.649 208.438 C 7.361 310.592,88.907 392.078,191.094 396.742 L 195.469 396.942 119.962 321.361 L 44.455 245.781 42.857 239.240 C 41.978 235.642,41.332 232.626,41.421 232.537 C 41.510 232.449,77.333 268.122,121.028 311.812 L 200.473 391.248 206.096 385.651 L 211.719 380.054 216.094 379.704 C 218.500 379.511,220.891 379.275,221.406 379.179 C 222.179 379.036,220.779 380.581,213.438 387.972 L 204.531 396.939 208.594 396.737 C 310.933 391.651,391.646 310.935,396.730 208.594 L 396.932 204.531 321.356 280.035 L 245.781 355.538 239.874 356.992 C 236.625 357.791,233.888 358.368,233.793 358.272 C 233.698 358.177,269.088 322.631,312.437 279.282 L 391.253 200.465 386.230 195.467 C 379.026 188.299,379.523 189.092,379.096 184.063 C 378.900 181.742,378.657 179.211,378.556 178.438 L 378.374 177.031 387.656 186.250 L 396.937 195.469 396.729 190.781 C 392.180 88.614,310.300 6.794,208.125 2.318 L 203.594 2.120 279.569 78.169 L 355.545 154.219 357.143 160.760 C 358.022 164.358,358.668 167.374,358.579 167.463 C 358.490 167.551,322.667 131.878,278.972 88.188 L 199.527 8.752 193.904 14.349 L 188.281 19.946 183.906 20.296 C 181.500 20.489,179.109 20.725,178.594 20.820 C 177.824 20.963,179.330 19.315,187.029 11.591 L 196.402 2.188 193.436 2.232 C 191.804 2.257,188.852 2.391,186.875 2.530 M213.202 29.318 L 217.969 34.104 216.563 33.923 C 213.260 33.498,205.666 33.131,200.103 33.128 C 128.633 33.091,64.954 78.682,42.025 146.305 L 40.295 151.406 35.851 155.881 C 30.781 160.985,29.052 162.493,29.243 161.645 C 47.393 80.902,118.490 24.136,201.014 24.499 L 208.435 24.531 213.202 29.318 M243.906 30.070 C 321.466 49.565,377.021 123.143,374.907 203.569 L 374.735 210.106 370.306 214.506 L 365.877 218.906 366.069 216.875 C 373.439 138.835,327.248 66.963,253.695 42.025 L 248.594 40.295 243.494 35.226 C 240.690 32.438,238.110 29.763,237.760 29.283 L 237.125 28.410 238.016 28.612 C 238.506 28.722,241.156 29.379,243.906 30.070 M205.108 117.266 C 203.852 123.668,202.670 129.645,202.483 130.547 L 202.143 132.188 199.509 132.188 C 198.060 132.188,196.881 132.082,196.887 131.953 C 196.894 131.824,197.164 130.453,197.487 128.907 C 197.810 127.361,198.048 126.069,198.016 126.037 C 197.983 126.004,197.257 126.913,196.400 128.055 C 189.777 136.892,182.291 131.797,187.150 121.759 C 189.773 116.340,193.603 113.438,198.131 113.438 L 200.537 113.438 201.221 109.922 C 201.597 107.988,201.964 106.230,202.036 106.016 C 202.128 105.745,202.969 105.625,204.780 105.625 L 207.393 105.625 205.108 117.266 M121.659 106.983 C 122.486 107.181,123.172 107.414,123.184 107.500 C 123.284 108.237,122.669 111.012,122.380 111.123 C 122.178 111.200,121.187 110.979,120.176 110.632 C 113.446 108.317,109.766 111.949,114.582 116.154 C 120.354 121.192,120.924 121.973,120.924 124.844 C 120.924 130.772,114.122 134.096,105.240 132.509 C 102.923 132.095,102.968 132.165,103.440 129.676 C 103.842 127.555,103.645 127.633,106.241 128.569 C 113.618 131.230,117.951 126.926,112.577 122.274 C 107.144 117.570,106.241 116.198,106.697 113.344 C 107.568 107.900,114.030 105.153,121.659 106.983 M142.409 110.547 C 142.316 111.020,142.142 111.934,142.023 112.578 L 141.805 113.750 143.740 113.750 L 145.675 113.750 145.470 114.766 C 145.034 116.931,145.097 116.875,143.110 116.875 C 141.451 116.875,141.245 116.947,141.096 117.578 C 140.794 118.853,139.063 127.592,139.063 127.839 C 139.063 128.506,140.154 129.063,141.464 129.063 L 142.883 129.063 142.661 130.547 C 142.357 132.578,142.492 132.501,139.278 132.489 C 133.136 132.465,132.702 130.611,135.783 117.578 C 135.935 116.936,135.838 116.875,134.669 116.875 C 133.390 116.875,133.388 116.873,133.592 115.859 C 134.009 113.786,134.039 113.750,135.314 113.750 C 136.502 113.750,136.528 113.725,136.727 112.395 C 137.007 110.529,137.113 110.424,139.063 110.072 C 142.208 109.504,142.603 109.560,142.409 110.547 M285.221 110.547 C 285.128 111.020,284.955 111.934,284.835 112.578 L 284.618 113.750 286.553 113.750 L 288.487 113.750 288.283 114.766 C 287.847 116.931,287.910 116.875,285.922 116.875 C 284.264 116.875,284.057 116.947,283.908 117.578 C 283.607 118.853,281.875 127.592,281.875 127.839 C 281.875 128.506,282.966 129.063,284.277 129.063 L 285.696 129.063 285.474 130.547 C 285.170 132.578,285.304 132.501,282.091 132.489 C 275.949 132.465,275.514 130.611,278.596 117.578 C 278.747 116.936,278.650 116.875,277.481 116.875 C 276.203 116.875,276.201 116.873,276.405 115.859 C 276.822 113.786,276.852 113.750,278.127 113.750 C 279.314 113.750,279.340 113.725,279.540 112.395 C 279.820 110.529,279.926 110.424,281.875 110.072 C 285.020 109.504,285.416 109.560,285.221 110.547 M231.699 114.356 C 235.817 118.226,229.650 125.625,222.307 125.625 C 221.237 125.625,221.158 126.081,221.943 127.714 C 222.808 129.512,226.387 129.479,230.316 127.636 C 233.438 126.170,233.297 125.991,232.339 130.220 C 231.998 131.724,223.157 133.178,220.229 132.211 C 213.312 129.929,216.037 117.275,224.131 114.089 C 226.557 113.134,230.548 113.275,231.699 114.356 M262.991 114.159 C 264.351 115.328,264.324 116.989,262.826 124.536 C 262.110 128.143,261.453 131.340,261.366 131.641 C 261.088 132.603,255.866 132.448,256.087 131.484 C 258.838 119.500,258.927 117.089,256.545 119.152 C 253.724 121.594,251.036 125.727,250.470 128.493 C 250.213 129.752,249.928 131.098,249.839 131.484 C 249.685 132.146,249.517 132.188,247.019 132.188 C 244.422 132.188,244.367 132.172,244.536 131.484 C 244.632 131.098,245.447 126.984,246.348 122.344 L 247.987 113.906 250.666 113.817 L 253.345 113.727 252.783 116.629 C 252.059 120.366,252.051 120.291,252.998 118.872 C 256.137 114.166,260.570 112.076,262.991 114.159 M163.648 114.453 C 163.245 116.124,161.250 126.574,161.250 127.015 C 161.250 130.291,168.222 121.786,169.224 117.287 C 169.485 116.115,169.769 114.840,169.855 114.453 C 170.003 113.791,170.168 113.750,172.683 113.750 C 175.079 113.750,175.338 113.806,175.196 114.297 C 175.109 114.598,174.318 118.500,173.438 122.969 C 172.557 127.438,171.766 131.340,171.679 131.641 C 171.400 132.603,166.178 132.448,166.401 131.484 C 166.689 130.245,167.500 126.216,167.500 126.026 C 167.500 125.926,167.061 126.462,166.524 127.219 C 163.903 130.914,161.661 132.500,159.061 132.500 C 155.011 132.500,154.909 130.519,158.172 115.234 L 158.489 113.750 161.154 113.750 C 163.758 113.750,163.814 113.766,163.648 114.453 M195.079 117.792 C 192.421 119.717,189.828 127.162,191.720 127.434 C 193.573 127.699,199.274 121.028,199.443 118.395 L 199.531 117.031 197.957 116.939 C 196.619 116.861,196.187 116.989,195.079 117.792 M224.758 117.541 C 223.763 118.178,222.468 120.059,222.043 121.484 C 221.597 122.978,225.317 122.173,226.918 120.429 C 229.209 117.934,227.569 115.741,224.758 117.541 M125.476 153.359 C 124.382 156.165,110.938 193.838,110.938 194.098 C 110.938 194.268,114.220 194.351,118.961 194.302 L 126.984 194.219 133.105 176.875 L 139.227 159.531 148.051 159.448 C 153.362 159.398,156.875 159.481,156.875 159.657 C 156.875 159.817,154.133 167.655,150.781 177.075 C 147.430 186.495,144.688 194.241,144.688 194.289 C 144.688 194.336,152.862 194.375,162.853 194.375 L 181.019 194.375 180.838 195.492 C 180.572 197.131,179.202 199.270,177.740 200.329 C 175.224 202.152,174.838 202.188,157.600 202.188 C 148.951 202.188,141.875 202.228,141.875 202.278 C 141.875 202.468,133.122 226.982,133.017 227.087 C 132.956 227.148,128.962 227.160,124.140 227.114 L 115.373 227.031 119.825 214.609 L 124.278 202.188 116.382 202.188 L 108.486 202.188 106.173 206.953 C 96.606 226.663,83.560 235.938,65.401 235.938 C 49.079 235.938,41.580 226.381,47.534 213.169 C 53.190 200.616,66.191 194.379,86.711 194.373 L 93.281 194.372 99.815 175.858 C 103.409 165.675,106.767 156.184,107.279 154.766 L 108.208 152.188 117.070 152.188 L 125.932 152.188 125.476 153.359 M199.304 159.852 C 202.817 160.895,205.186 163.844,205.498 167.560 C 205.608 168.867,205.080 174.895,203.932 185.449 C 202.979 194.204,202.245 201.411,202.300 201.466 C 202.354 201.521,207.728 193.193,214.242 182.959 C 229.820 158.483,228.728 159.615,236.951 159.425 L 241.558 159.318 241.638 180.206 L 241.719 201.094 252.969 180.246 L 264.219 159.399 270.250 159.387 L 276.281 159.375 275.192 161.328 C 274.593 162.402,266.798 176.500,257.868 192.656 C 237.624 229.283,239.504 226.938,230.237 227.137 L 225.317 227.242 225.237 206.175 L 225.156 185.108 213.286 203.569 C 197.585 227.988,198.651 226.955,188.967 227.135 L 183.386 227.239 183.580 225.573 C 183.818 223.523,188.438 172.560,188.438 171.980 C 188.438 171.640,186.387 171.563,177.344 171.563 C 171.242 171.563,166.250 171.479,166.250 171.378 C 166.250 171.216,171.819 161.962,173.050 160.078 L 173.509 159.375 185.604 159.375 C 195.536 159.375,197.986 159.460,199.304 159.852 M335.844 159.694 C 348.468 161.277,354.472 166.984,353.992 176.943 C 353.579 185.521,343.654 194.622,328.672 200.161 C 326.817 200.847,326.499 199.675,331.396 210.186 L 335.604 219.219 345.186 219.301 L 354.768 219.384 354.582 220.529 C 354.146 223.218,351.329 225.990,348.129 226.879 C 346.157 227.427,323.626 227.274,322.260 226.704 C 320.857 226.118,319.857 225.226,318.874 223.686 C 318.145 222.544,307.563 199.590,307.418 198.837 C 307.372 198.596,309.174 197.814,312.188 196.767 C 321.200 193.636,324.775 191.985,327.872 189.520 C 333.959 184.675,334.611 176.776,329.201 173.427 C 326.520 171.768,326.560 171.771,298.079 171.582 L 271.627 171.406 274.423 166.875 C 275.961 164.383,277.633 161.676,278.138 160.859 L 279.057 159.375 306.177 159.375 C 322.774 159.375,334.286 159.499,335.844 159.694 M314.375 177.905 C 314.375 178.123,296.912 226.942,296.791 227.063 C 296.717 227.137,292.715 227.160,287.898 227.114 L 279.139 227.031 287.698 202.813 C 292.405 189.492,296.321 178.418,296.400 178.203 C 296.526 177.858,314.375 177.562,314.375 177.905 M33.754 185.047 C 26.249 260.969,74.384 334.316,147.527 358.410 L 151.460 359.705 157.184 365.482 C 160.332 368.659,162.837 371.330,162.750 371.416 C 162.664 371.503,160.041 370.933,156.922 370.151 C 78.552 350.490,22.969 277.245,25.093 196.434 L 25.265 189.899 29.571 185.586 C 31.939 183.213,33.927 181.323,33.990 181.386 C 34.053 181.449,33.946 183.096,33.754 185.047 M86.406 202.525 C 75.753 203.370,66.260 209.870,64.216 217.717 C 60.712 231.170,74.138 230.794,83.168 217.186 C 86.846 211.644,91.226 202.132,90.055 202.232 C 89.767 202.256,88.125 202.388,86.406 202.525 M370.756 238.359 C 352.811 318.285,282.491 375.124,201.174 375.432 L 191.567 375.469 186.799 370.682 L 182.031 365.896 183.438 366.077 C 186.740 366.502,194.334 366.869,199.897 366.872 C 271.796 366.909,335.970 320.591,358.413 252.462 L 359.713 248.517 365.143 243.165 C 370.778 237.611,370.959 237.456,370.756 238.359 M289.688 258.524 C 289.688 258.571,288.141 266.337,286.250 275.781 C 284.359 285.226,282.813 292.991,282.813 293.039 C 282.813 293.086,281.263 293.125,279.369 293.125 C 275.957 293.125,275.927 293.119,276.091 292.422 C 276.182 292.035,277.670 284.547,279.397 275.781 C 281.123 267.016,282.614 259.527,282.708 259.141 C 282.857 258.531,289.688 257.928,289.688 258.524 M132.583 261.514 C 135.329 262.867,136.442 265.983,135.498 269.671 C 133.740 276.533,128.514 280.313,120.784 280.313 L 117.950 280.313 116.700 286.641 L 115.451 292.969 111.920 293.057 C 108.656 293.139,108.401 293.104,108.555 292.589 C 108.646 292.282,110.068 285.141,111.715 276.719 C 113.362 268.297,114.773 261.222,114.852 260.996 C 115.143 260.164,130.767 260.621,132.583 261.514 M224.852 264.453 C 223.724 269.420,223.595 269.063,226.525 269.063 L 228.987 269.063 228.698 270.547 C 228.076 273.746,228.401 273.438,225.653 273.438 C 223.230 273.438,223.189 273.450,222.977 274.297 C 222.273 277.096,220.625 285.912,220.625 286.879 C 220.625 288.620,221.438 289.195,223.589 288.973 C 225.557 288.770,225.570 288.797,224.892 291.699 C 224.447 293.601,223.756 293.857,219.481 293.700 C 213.266 293.471,212.581 291.518,214.844 280.486 C 215.617 276.715,216.250 273.587,216.250 273.534 C 216.250 273.481,215.547 273.438,214.688 273.438 C 213.828 273.438,213.125 273.344,213.125 273.229 C 213.125 273.114,213.280 272.130,213.470 271.041 L 213.814 269.063 215.454 269.063 L 217.094 269.063 217.531 266.953 L 217.969 264.844 220.625 264.327 C 224.501 263.572,225.049 263.588,224.852 264.453 M119.934 270.475 L 118.838 275.959 120.747 275.764 C 125.259 275.304,128.438 272.210,128.438 268.279 C 128.438 265.992,127.698 265.561,123.093 265.168 L 121.030 264.992 119.934 270.475 M165.156 269.283 C 172.841 273.352,169.416 287.966,159.688 292.622 C 155.449 294.650,148.992 293.962,146.344 291.199 C 140.989 285.613,146.380 272.364,155.359 269.045 C 157.723 268.171,163.312 268.307,165.156 269.283 M203.101 268.984 C 203.087 269.285,202.696 270.727,202.231 272.188 L 201.386 274.844 199.656 274.740 C 197.076 274.586,194.274 277.051,190.162 283.092 C 188.942 284.884,187.188 290.736,187.188 293.012 C 187.188 293.074,185.631 293.125,183.729 293.125 C 180.582 293.125,180.285 293.076,180.432 292.578 C 180.521 292.277,181.602 286.863,182.834 280.547 L 185.073 269.063 188.474 269.063 C 190.345 269.063,191.875 269.184,191.875 269.332 C 191.875 269.480,191.523 271.328,191.094 273.438 C 190.664 275.547,190.313 277.358,190.313 277.462 C 190.313 277.566,190.907 276.742,191.633 275.630 C 193.334 273.027,196.134 270.235,198.035 269.245 C 199.933 268.257,203.140 268.092,203.101 268.984 M261.511 268.930 C 264.942 269.112,265.049 269.139,264.893 269.793 C 264.805 270.165,263.718 275.566,262.477 281.797 L 260.220 293.125 256.829 293.125 C 254.964 293.125,253.438 293.074,253.438 293.012 C 253.438 292.949,253.789 291.172,254.219 289.063 C 254.648 286.953,255.000 285.089,255.000 284.921 C 255.000 284.754,254.414 285.494,253.698 286.566 C 244.229 300.746,233.092 292.262,241.760 277.473 C 245.422 271.224,249.843 268.292,255.156 268.587 C 256.703 268.672,259.563 268.827,261.511 268.930 M156.163 273.843 C 151.817 276.474,149.678 286.905,153.108 288.741 C 157.094 290.874,162.131 285.057,162.227 278.206 C 162.291 273.647,159.639 271.739,156.163 273.843 M251.528 274.017 C 248.167 276.149,243.904 286.547,246.052 287.371 C 248.866 288.451,258.645 276.048,257.034 273.442 C 256.581 272.710,253.000 273.084,251.528 274.017 M207.500 296.883 C 208.273 297.517,209.469 298.209,210.156 298.421 C 214.539 299.769,215.397 300.830,215.798 305.389 C 215.945 307.058,216.285 308.390,216.897 309.682 C 218.344 312.743,218.368 313.446,217.108 316.034 L 216.014 318.281 215.826 329.565 L 215.637 340.848 216.874 341.406 C 219.017 342.372,219.181 342.882,219.323 349.021 L 219.447 354.448 216.057 357.849 L 212.667 361.250 207.271 361.250 L 201.875 361.250 201.875 360.351 C 201.875 357.534,204.850 354.375,207.502 354.375 C 208.734 354.375,208.844 354.041,208.136 352.441 C 206.865 349.569,203.671 347.872,201.250 348.782 L 199.844 349.310 199.754 351.608 L 199.664 353.906 196.165 357.422 L 192.666 360.938 187.427 360.938 L 182.188 360.938 182.188 359.583 C 182.188 357.139,184.898 354.375,187.295 354.375 L 188.370 354.375 188.570 351.172 C 189.007 344.164,190.094 342.013,193.545 341.331 L 194.844 341.075 194.930 336.319 L 195.016 331.563 189.274 331.563 L 183.531 331.563 182.313 330.667 C 180.128 329.063,179.063 327.032,179.063 324.474 C 179.063 324.419,182.453 324.375,186.598 324.375 L 194.134 324.375 190.354 320.391 C 188.276 318.199,184.891 314.648,182.832 312.500 C 178.069 307.530,178.036 307.272,182.031 306.250 C 185.840 305.276,185.947 305.324,191.664 310.596 C 196.886 315.412,198.141 316.147,198.549 314.626 C 198.971 313.050,198.772 312.545,197.344 311.563 C 196.570 311.030,195.936 310.356,195.933 310.063 C 195.931 309.771,195.849 309.233,195.751 308.868 C 195.581 308.234,195.699 308.198,198.403 308.069 C 201.490 307.921,201.712 307.839,201.429 306.946 C 201.141 306.038,199.897 305.625,197.450 305.625 C 194.825 305.625,192.979 304.794,192.664 303.471 C 192.557 303.023,192.397 302.410,192.308 302.109 C 192.160 301.613,192.446 301.563,195.389 301.563 C 198.786 301.563,200.000 300.954,200.000 299.250 C 200.000 298.558,200.456 298.389,202.916 298.169 L 205.156 297.969 205.253 296.634 C 205.361 295.134,205.366 295.135,207.500 296.883 " stroke="none" fill="#fbfbfb" fill-rule="evenodd"></path></g></svg>